<svg xmlns="http://www.w3.org/2000/svg" xmlns:xlink="http://www.w3.org/1999/xlink" viewBox="0 0 1366.16 125.52">
	<style type="text/css">.st0{fill:#fff;}</style>
	<g>
		<path class="st0" d="M599.27,81.72V14.14c-33.96-3.24-56.79,13.25-76.17,38.72c-15.28-13.77-29.83-26.91-46.82-42.23v114.89H543C547.65,97.16,565.97,81.9,599.27,81.72z"/>
		<path class="st0" d="M13.18,20.85v56.94h77.57c-8.23,16.15-16.31,32.02-24.32,47.73h71.23c17.64-35.09,34.99-69.61,52.62-104.67H13.18z"/>
		<path class="st0" d="M326.08,13.21c-62.93,0-114.2,49.91-116.4,112.31h232.8C440.28,63.12,389.01,13.21,326.08,13.21z M276.93,102.9c6.31-19.38,21.07-34.67,48.95-34.67c38.51,0,46.88,27.1,49.61,34.66C347.01,102.89,305.25,102.9,276.93,102.9z"/>
		<path class="st0" d="M910.91,104.59c-10.34,0-18.72,8.39-18.72,18.73c0,0.75,0.06,1.48,0.14,2.21h37.16c0.09-0.72,0.14-1.46,0.14-2.21C929.64,112.97,921.25,104.59,910.91,104.59z"/>
		<path class="st0" d="M1262.01,55.2c-17.67,0-32.03,14.35-32.03,32.01c0,17.65,14.36,32,32.03,32c17.64,0,32-14.35,32-32C1294.01,69.56,1279.65,55.2,1262.01,55.2z M1262,95.98c-4.84,0-8.78-3.93-8.78-8.76c0-4.84,3.94-8.78,8.78-8.78c4.84,0,8.77,3.94,8.77,8.78C1270.77,92.04,1266.84,95.98,1262,95.98z"/>
		<polygon class="st0" points="1338.42,46.86 1291.75,125.52 1316.56,125.52 1356.77,57.74 	"/>
		<path class="st0" d="M732.93,13.21c-62.93,0-114.2,49.92-116.4,112.31h62.68c2.13-27.64,25.21-49.41,53.4-49.41c28.19,0,51.28,21.77,53.41,49.41h63.31C847.13,63.13,795.85,13.21,732.93,13.21z"/>
		<path class="st0" d="M1162.11,40.51l9.99-17.3l-34.05-19.66l-10.09,17.47c-12.41-4.54-25.75-7.15-39.73-7.15c-62.56,0-113.54,49.61-115.74,111.65h48.46c2.16-35.12,31.3-62.94,66.96-62.94c35.66,0,64.81,27.83,66.97,62.94h49.08C1202.76,91.33,1186.73,60.93,1162.11,40.51z"/>
	</g>
</svg>
