<svg version="1.0" xmlns="http://www.w3.org/2000/svg" width="933.333" height="933.333" viewBox="0 0 700 700"><path d="M472.8 28.8c-6.8 11.9-12.7 22.5-13.1 23.4-.8 2.2-2.2 2.2-7.8.2-15.9-5.6-43.3-12.1-60.4-14.3-27.6-3.7-60.8-3.5-87 .4-42.5 6.3-80.4 19.9-117.8 42.3-12.9 7.7-33.8 22.9-43.2 31.2-6.3 5.7-25.9 25.3-30.5 30.5-22.2 25.2-43.8 60.4-55.3 90-1.9 4.9-3.8 9.9-4.2 11-.5 1.1-.9 2.2-1 2.5-.1.3-1.5 5-3.2 10.5-2.7 8.6-3.6 11.8-4.9 17-2.7 11.6-3.6 15.3-3.9 17-1.3 7.3-2.8 17.5-3.1 20-1.6 14.5-1.9 20.7-1.9 39 0 20.6.6 29.9 2.6 44 .6 3.8 1.2 8.3 1.5 10 .2 1.6.8 5.2 1.4 8 .6 2.7 1.2 6 1.5 7.3 2.5 13.5 12.4 43 19.7 59.2 18.8 41.5 46.2 78.6 79.6 108l6.2 5.5-13.8 24.1-13.8 24.1 29.5 17.1c30.9 17.8 61.2 35.2 62.2 35.8.6.3 2.3-2.6 18.8-31.1 5.1-8.8 9.4-16.1 9.6-16.3.1-.1 2.6.7 5.6 1.8 2.9 1.2 7.6 2.7 10.4 3.5 2.7.8 8.4 2.3 12.5 3.5 9.4 2.7 27.8 6.6 35 7.5 3 .3 6.2.8 7 1 7.1 1.9 55.1 2.7 68.3 1.2 15-1.7 30.5-4.1 36.7-5.7 1.9-.5 4.6-1.1 6-1.4 15.6-2.7 46.3-13.8 67.8-24.5 47.4-23.4 89.3-59.7 119.6-103.5 14.2-20.5 27.8-46.8 36.6-70.9 2.7-7.3 9.5-29.6 10.4-34.2.3-1.1 1.1-5.4 2-9.5 2.4-11.6 4.1-23 5.4-35.5.9-9.6.9-48.2-.1-58-3.6-34.9-12.8-69.9-26.2-99-5.6-12.3-7.3-15.6-12.8-25.5-8.4-14.8-18.4-29.6-29.5-43.4-9.6-12-29-32.2-39-40.7l-5.4-4.5L562 88c6.2-10.7 12.3-21.4 13.6-23.6l2.4-4.1-18.2-10.5C549.7 44 539.9 38.4 538 37.3c-1.9-1.1-13.3-7.7-25.2-14.6-11.9-6.9-23-13.3-24.6-14.1l-2.9-1.5-12.5 21.7zM366.5 168.3c11.7 1.3 15.5 1.9 25.5 4.3 32.1 7.8 62.3 24.6 85 47.4 13.4 13.5 21 23.2 29.6 38 5.5 9.3 12.6 24 11.7 24-.3 0-.1.6.4 1.2 2.5 3.1 9.6 28.8 10.8 38.8.4 3 1 7.5 1.4 10 1.4 9 .4 34.9-1.9 48.5-1.2 7.1-2.4 13.3-2.7 13.7-.2.5-.6 1.7-.9 2.8-2.1 9.8-7.1 22.6-14.1 36.5-3.6 7.1-14.7 24.7-17.4 27.5-.8.8-2.6 3.2-4.1 5.2-4.7 6.2-20.4 21.4-28.5 27.6-8.1 6.1-20 14.2-21 14.2-.3 0-1.7.8-3.1 1.8-6.5 4.5-36 15.9-45.2 17.6-1.4.2-4.7.9-7.4 1.5-18.7 4.3-46.5 4.6-68.1.6-14.4-2.6-26.8-6.4-40.7-12.6-51.7-22.7-90.3-68.4-103.6-122.9-2.3-9.2-2.9-12.3-3.7-18.5-.3-2.2-.7-5.6-1-7.5-.6-4.4-.7-31.7-.1-35 .3-1.4.7-4.8 1-7.5.3-2.8.8-6.2 1.1-7.8.3-1.5.7-3.7.9-5 .4-2.2 3.8-14.7 5.5-20.2 4.6-15.1 16.1-37 27.2-51.8 27.8-37 68.4-62.2 113.4-70.3 1.7-.3 4.1-.7 5.5-1 1.4-.2 5.9-.7 10-1 4.1-.3 7.6-.7 7.7-.8.4-.4 21.6.2 26.8.7z"/></svg>