<?xml version="1.0" standalone="no"?>
<!DOCTYPE svg PUBLIC "-//W3C//DTD SVG 20010904//EN"
 "http://www.w3.org/TR/2001/REC-SVG-20010904/DTD/svg10.dtd">
<svg version="1.0" xmlns="http://www.w3.org/2000/svg"
 width="700.000000pt" height="700.000000pt" viewBox="0 0 700.000000 700.000000"
 preserveAspectRatio="xMidYMid meet">
<metadata>
Created by potrace 1.11, written by Peter Selinger 2001-2013
</metadata>
<g transform="translate(0.000000,700.000000) scale(0.100000,-0.100000)"
fill="#000000" stroke="none">
<path d="M4728 6712 c-68 -119 -127 -225 -131 -234 -8 -22 -22 -22 -78 -2
-159 56 -433 121 -604 143 -276 37 -608 35 -870 -4 -425 -63 -804 -199 -1178
-423 -129 -77 -338 -229 -432 -312 -63 -57 -259 -253 -305 -305 -222 -252
-438 -604 -553 -900 -19 -49 -38 -99 -42 -110 -5 -11 -9 -22 -10 -25 -1 -3
-15 -50 -32 -105 -27 -86 -36 -118 -49 -170 -27 -116 -36 -153 -39 -170 -13
-73 -28 -175 -31 -200 -16 -145 -19 -207 -19 -390 0 -206 6 -299 26 -440 6
-38 12 -83 15 -100 2 -16 8 -52 14 -80 6 -27 12 -60 15 -73 25 -135 124 -430
197 -592 188 -415 462 -786 796 -1080 l62 -55 -138 -241 -138 -241 295 -171
c309 -178 612 -352 622 -358 6 -3 23 26 188 311 51 88 94 161 96 163 1 1 26
-7 56 -18 29 -12 76 -27 104 -35 27 -8 84 -23 125 -35 94 -27 278 -66 350 -75
30 -3 62 -8 70 -10 71 -19 551 -27 683 -12 150 17 305 41 367 57 19 5 46 11
60 14 156 27 463 138 678 245 474 234 893 597 1196 1035 142 205 278 468 366
709 27 73 95 296 104 342 3 11 11 54 20 95 24 116 41 230 54 355 9 96 9 482
-1 580 -36 349 -128 699 -262 990 -56 123 -73 156 -128 255 -84 148 -184 296
-295 434 -96 120 -290 322 -390 407 l-54 45 112 194 c62 107 123 214 136 236
l24 41 -182 105 c-101 58 -199 114 -218 125 -19 11 -133 77 -252 146 -119 69
-230 133 -246 141 l-29 15 -125 -217z m-1063 -1395 c117 -13 155 -19 255 -43
321 -78 623 -246 850 -474 134 -135 210 -232 296 -380 55 -93 126 -240 117
-240 -3 0 -1 -6 4 -12 25 -31 96 -288 108 -388 4 -30 10 -75 14 -100 14 -90 4
-349 -19 -485 -12 -71 -24 -133 -27 -137 -2 -5 -6 -17 -9 -28 -21 -98 -71
-226 -141 -365 -36 -71 -147 -247 -174 -275 -8 -8 -26 -32 -41 -52 -47 -62
-204 -214 -285 -276 -81 -61 -200 -142 -210 -142 -3 0 -17 -8 -31 -18 -65 -45
-360 -159 -452 -176 -14 -2 -47 -9 -74 -15 -187 -43 -465 -46 -681 -6 -144 26
-268 64 -407 126 -517 227 -903 684 -1036 1229 -23 92 -29 123 -37 185 -3 22
-7 56 -10 75 -6 44 -7 317 -1 350 3 14 7 48 10 75 3 28 8 62 11 78 3 15 7 37
9 50 4 22 38 147 55 202 46 151 161 370 272 518 278 370 684 622 1134 703 17
3 41 7 55 10 14 2 59 7 100 10 41 3 76 7 77 8 4 4 216 -2 268 -7z"/>
</g>
</svg>
