<svg xmlns="http://www.w3.org/2000/svg" viewBox="0 0 1366.16 125.52"><path d="M599.27 81.72V14.14c-33.96-3.24-56.79 13.25-76.17 38.72-15.28-13.77-29.83-26.91-46.82-42.23v114.89H543c4.65-28.36 22.97-43.62 56.27-43.8zM13.18 20.85v56.94h77.57c-8.23 16.15-16.31 32.02-24.32 47.73h71.23c17.64-35.09 34.99-69.61 52.62-104.67H13.18zm312.9-7.64c-62.93 0-114.2 49.91-116.4 112.31h232.8c-2.2-62.4-53.47-112.31-116.4-112.31zm-49.15 89.69c6.31-19.38 21.07-34.67 48.95-34.67 38.51 0 46.88 27.1 49.61 34.66-28.48 0-70.24.01-98.56.01zm633.98 1.69c-10.34 0-18.72 8.39-18.72 18.73 0 .75.06 1.48.14 2.21h37.16c.09-.72.14-1.46.14-2.21.01-10.35-8.38-18.73-18.72-18.73zm351.1-49.39c-17.67 0-32.03 14.35-32.03 32.01 0 17.65 14.36 32 32.03 32 17.64 0 32-14.35 32-32s-14.36-32.01-32-32.01zm-.01 40.78c-4.84 0-8.78-3.93-8.78-8.76 0-4.84 3.94-8.78 8.78-8.78s8.77 3.94 8.77 8.78c0 4.82-3.93 8.76-8.77 8.76zm76.42-49.12l-46.67 78.66h24.81l40.21-67.78zM732.93 13.21c-62.93 0-114.2 49.92-116.4 112.31h62.68c2.13-27.64 25.21-49.41 53.4-49.41 28.19 0 51.28 21.77 53.41 49.41h63.31c-2.2-62.39-53.48-112.31-116.4-112.31zm429.18 27.3l9.99-17.3-34.05-19.66-10.09 17.47c-12.41-4.54-25.75-7.15-39.73-7.15-62.56 0-113.54 49.61-115.74 111.65h48.46c2.16-35.12 31.3-62.94 66.96-62.94s64.81 27.83 66.97 62.94h49.08c-1.2-34.19-17.23-64.59-41.85-85.01z" fill="#fff"/></svg>